<svg xmlns="http://www.w3.org/2000/svg" viewBox="0 0 1200 560" role="img" aria-labelledby="t"><title id="t">A laptop deploys an application to one server, where Wick holds a green check mark</title><circle cx="930" cy="300" r="230" fill="#5b9dff" opacity=".14"/><g transform="translate(110 190)"><rect width="280" height="180" rx="10" fill="#475569"/><rect x="10" y="10" width="260" height="160" rx="4" fill="#ffffff"/><rect x="30" y="28" width="220" height="124" rx="8" fill="#0f172a"/><circle cx="44" cy="42" r="4" fill="#cbd5e1"/><circle cx="56" cy="42" r="4" fill="#cbd5e1"/><circle cx="68" cy="42" r="4" fill="#cbd5e1"/><rect x="46" y="62" width="110" height="8" rx="4" fill="#cbd5e1"/><rect x="46" y="80" width="150" height="8" rx="4" fill="#5b9dff"/><rect x="46" y="98" width="80" height="8" rx="4" fill="#16a34a"/><rect x="46" y="118" width="12" height="10" rx="2" fill="#cbd5e1"/><path d="M-20 182h320a6 6 0 0 1-6 10H-14a6 6 0 0 1-6-10z" fill="#cbd5e1"/></g><g transform="translate(392 118) scale(2.6)"><path d="M0 0h14l6 6v18H0z" fill="#ffffff" stroke="#475569" stroke-width="1.6" stroke-linejoin="round"/><path d="M14 0v6h6" fill="none" stroke="#475569" stroke-width="1.6" stroke-linejoin="round"/><path d="M4 11h8" stroke="#0b62d6" stroke-width="1.6" stroke-linecap="round"/><path d="M4 15h12M4 19h7" stroke="#cbd5e1" stroke-width="1.6" stroke-linecap="round"/></g><path d="M420 300C520 300 560 262 720 262" fill="none" stroke="#0b62d6" stroke-width="3.5" stroke-linecap="round"/><path transform="translate(722 262) rotate(0)" d="M-12 -9L2 0 -12 9" fill="none" stroke="#0b62d6" stroke-width="3.5" stroke-linecap="round" stroke-linejoin="round"/><g transform="translate(548 258)"><rect width="40" height="40" rx="6" fill="#0b62d6"/><rect width="40" height="12" rx="6" fill="#5b9dff"/><rect x="16.8" width="6.4" height="40" fill="#ffffff" opacity=".7"/></g><g transform="translate(790 150)"><path d="M60 260v18M240 260v18" stroke="#cbd5e1" stroke-width="6"/><rect x="30" y="276" width="240" height="8" rx="4" fill="#cbd5e1"/><rect width="300" height="260" rx="14" fill="#ffffff" stroke="#475569" stroke-width="3"/><path d="M0 44h300" stroke="#cbd5e1" stroke-width="2"/><circle cx="22" cy="22" r="4" fill="#16a34a"/><circle cx="38" cy="22" r="4" fill="#16a34a"/><circle cx="54" cy="22" r="4" fill="#cbd5e1"/><rect x="28" y="72" width="116" height="60" rx="6" fill="#eef4fe" stroke="#5b9dff" stroke-width="2"/><circle cx="40" cy="84" r="4" fill="#16a34a"/><rect x="50" y="81" width="52" height="6" rx="3" fill="#cbd5e1"/><rect x="156" y="72" width="116" height="60" rx="6" fill="#eef4fe" stroke="#5b9dff" stroke-width="2"/><circle cx="168" cy="84" r="4" fill="#16a34a"/><rect x="178" y="81" width="52" height="6" rx="3" fill="#cbd5e1"/><rect x="28" y="156" width="244" height="12" rx="6" fill="#cbd5e1"/><rect x="28" y="180" width="160" height="12" rx="6" fill="#cbd5e1"/><rect x="28" y="206" width="244" height="30" rx="8" fill="#eef4fe"/></g><g transform="translate(1088 152) scale(1)"><circle r="18" fill="#0b62d6"/><path d="M-5 -2v-4a5 5 0 0 1 10 0v4" fill="none" stroke="#ffffff" stroke-width="2.4"/><rect x="-7" y="-2" width="14" height="11" rx="2.5" fill="#ffffff"/></g><g transform="translate(1056 60)"><rect width="116" height="64" rx="10" fill="#ffffff" stroke="#475569" stroke-width="2"/><g transform="translate(30 32)" fill="none" stroke="#0b62d6" stroke-width="2.5"><circle r="15"/><ellipse rx="6.75" ry="15"/><path d="M-15 0h30M-13.05 -7.5h26.1M-13.05 7.5h26.1"/></g><rect x="56" y="22" width="44" height="7" rx="3.5" fill="#cbd5e1"/><rect x="56" y="36" width="30" height="7" rx="3.5" fill="#5b9dff"/></g><path d="M1024 124L1094 152" fill="none" stroke="#cbd5e1" stroke-width="2.5" stroke-dasharray="1 7" stroke-linecap="round"/><g transform="translate(846 68) scale(0.72)"><path d="M36 92L28 106" stroke="#0b62d6" stroke-width="7" stroke-linecap="round"/><path d="M94 88L106 80" stroke="#0b62d6" stroke-width="7" stroke-linecap="round"/><path d="M74 8C80 24 100 50 100 78C100 100 86 116 64 116C42 116 28 100 28 78C28 64 30 50 36 42C38 39 41 40 44 46C48 54 52 56 56 54C62 48 68 30 74 8Z" fill="#0b62d6"/><path d="M70 46C74 58 86 70 86 88C86 102 76 110 64 110C52 110 42 102 42 88C42 74 50 68 56 60C62 54 66 52 70 46Z" fill="#5b9dff"/><ellipse cx="53" cy="80" rx="7" ry="8" fill="#ffffff"/><ellipse cx="75" cy="80" rx="7" ry="8" fill="#ffffff"/><circle cx="53.5" cy="81" r="3.4" fill="#0f172a"/><circle cx="75.5" cy="81" r="3.4" fill="#0f172a"/><path d="M58 95Q64 100 70 95" stroke="#0f172a" stroke-width="2.4" stroke-linecap="round" fill="none"/></g><g transform="translate(932 122) scale(0.7647058823529411)"><circle r="17" fill="#16a34a"/><path d="M-8 0l6 6 11-12" stroke="#ffffff" stroke-width="3.5" fill="none" stroke-linecap="round" stroke-linejoin="round"/></g></svg>
