<svg xmlns="http://www.w3.org/2000/svg" viewBox="0 0 600 420" role="img" aria-labelledby="t"><title id="t">One server holding several applications behind a shield, with Wick watching</title><circle cx="310" cy="210" r="190" fill="#5b9dff" opacity=".14"/><path d="M60 388h480" stroke="#cbd5e1" stroke-width="3" stroke-linecap="round"/><g transform="translate(170 60)"><path d="M60 280v18M240 280v18" stroke="#cbd5e1" stroke-width="6"/><rect x="30" y="296" width="240" height="8" rx="4" fill="#cbd5e1"/><rect width="300" height="280" rx="14" fill="#ffffff" stroke="#475569" stroke-width="3"/><path d="M0 44h300" stroke="#cbd5e1" stroke-width="2"/><circle cx="22" cy="22" r="4" fill="#16a34a"/><circle cx="38" cy="22" r="4" fill="#16a34a"/><circle cx="54" cy="22" r="4" fill="#cbd5e1"/><rect x="28" y="68" width="116" height="52" rx="6" fill="#eef4fe" stroke="#5b9dff" stroke-width="2"/><circle cx="40" cy="80" r="4" fill="#16a34a"/><rect x="50" y="77" width="52" height="6" rx="3" fill="#cbd5e1"/><rect x="156" y="68" width="116" height="52" rx="6" fill="#eef4fe" stroke="#5b9dff" stroke-width="2"/><circle cx="168" cy="80" r="4" fill="#16a34a"/><rect x="178" y="77" width="52" height="6" rx="3" fill="#cbd5e1"/><rect x="28" y="134" width="116" height="52" rx="6" fill="#eef4fe" stroke="#5b9dff" stroke-width="2"/><circle cx="40" cy="146" r="4" fill="#16a34a"/><rect x="50" y="143" width="52" height="6" rx="3" fill="#cbd5e1"/><rect x="156" y="134" width="116" height="52" rx="6" fill="#eef4fe" stroke="#5b9dff" stroke-width="2"/><circle cx="168" cy="146" r="4" fill="#d97706"/><rect x="178" y="143" width="52" height="6" rx="3" fill="#cbd5e1"/><rect x="28" y="200" width="116" height="52" rx="6" fill="#eef4fe" stroke="#5b9dff" stroke-width="2"/><circle cx="40" cy="212" r="4" fill="#16a34a"/><rect x="50" y="209" width="52" height="6" rx="3" fill="#cbd5e1"/><rect x="156" y="200" width="116" height="52" rx="6" fill="#eef4fe" stroke="#5b9dff" stroke-width="2"/><circle cx="168" cy="212" r="4" fill="#16a34a"/><rect x="178" y="209" width="52" height="6" rx="3" fill="#cbd5e1"/></g><g transform="translate(150 300)"><path d="M0 -44l40 -14 40 14v36c0 26-22 44-40 54-18-10-40-28-40-54z" fill="#0b62d6"/><path d="M0 -44l40 -14v108c-18-10-40-28-40-54z" fill="#5b9dff"/><path d="M28 -6v-8a12 12 0 0 1 24 0v8" fill="none" stroke="#ffffff" stroke-width="4"/><rect x="24" y="-6" width="32" height="24" rx="4" fill="#ffffff"/></g><g transform="translate(455 272) scale(0.9)"><path d="M36 92L28 106" stroke="#0b62d6" stroke-width="7" stroke-linecap="round"/><path d="M94 88L108 78" stroke="#0b62d6" stroke-width="7" stroke-linecap="round"/><path d="M74 8C80 24 100 50 100 78C100 100 86 116 64 116C42 116 28 100 28 78C28 64 30 50 36 42C38 39 41 40 44 46C48 54 52 56 56 54C62 48 68 30 74 8Z" fill="#0b62d6"/><path d="M70 46C74 58 86 70 86 88C86 102 76 110 64 110C52 110 42 102 42 88C42 74 50 68 56 60C62 54 66 52 70 46Z" fill="#5b9dff"/><path d="M46 81A7 7 0 0 0 60 81ZM68 81A7 7 0 0 0 82 81Z" fill="#ffffff"/><circle cx="51" cy="84" r="2.8" fill="#0f172a"/><circle cx="73" cy="84" r="2.8" fill="#0f172a"/><path d="M59 95Q64 98 69 95" stroke="#0f172a" stroke-width="2.4" stroke-linecap="round" fill="none"/></g><g transform="translate(552 344)"><circle cy="10" r="15" fill="#d97706" opacity=".16"/><path d="M-3 2q3-7 6 0" stroke="#475569" stroke-width="1.6" fill="none"/><rect x="-6" y="2" width="12" height="16" rx="2" fill="#475569"/><rect x="-3.5" y="5" width="7" height="9" rx="1" fill="#d97706"/></g></svg>
